<mxfile host="app.diagrams.net" modified="2023-09-05T00:46:55.558Z" agent="Mozilla/5.0 (Windows NT 10.0; Win64; x64) AppleWebKit/537.36 (KHTML, like Gecko) Chrome/116.0.0.0 Safari/537.36" etag="dA5LlMxG6tEJ5H7Nl1uW" version="21.7.2" type="github">
  <diagram name="PÃ¡gina-1" id="MxIFzGJbgPdJj9NGr6BE">
    <mxGraphModel dx="3010" dy="834" grid="0" gridSize="10" guides="1" tooltips="1" connect="1" arrows="1" fold="1" page="1" pageScale="1" pageWidth="827" pageHeight="1169" math="0" shadow="0">
      <root>
        <mxCell id="0" />
        <mxCell id="1" parent="0" />
        <mxCell id="8MOAWp1Sfqbr2MybWYsb-123" style="edgeStyle=orthogonalEdgeStyle;rounded=0;orthogonalLoop=1;jettySize=auto;html=1;entryX=0.059;entryY=0.019;entryDx=0;entryDy=0;entryPerimeter=0;fontSize=13;" edge="1" parent="1" source="8MOAWp1Sfqbr2MybWYsb-63" target="8MOAWp1Sfqbr2MybWYsb-112">
          <mxGeometry relative="1" as="geometry">
            <Array as="points">
              <mxPoint x="-497" y="564" />
              <mxPoint x="124" y="564" />
            </Array>
          </mxGeometry>
        </mxCell>
        <mxCell id="8MOAWp1Sfqbr2MybWYsb-63" value="&lt;p style=&quot;border-color: var(--border-color); margin: 4px 0px 0px; text-align: center; font-size: 13px;&quot;&gt;&amp;lt;&amp;lt;Controller&amp;gt;&amp;gt;&lt;/p&gt;&lt;p style=&quot;margin: 4px 0px 0px; text-align: center; font-size: 13px;&quot;&gt;&lt;b style=&quot;font-size: 13px;&quot;&gt;LoginControler&lt;/b&gt;&lt;/p&gt;&lt;hr style=&quot;font-size: 13px;&quot;&gt;&lt;p style=&quot;margin: 0px 0px 0px 4px; font-size: 13px;&quot;&gt;&lt;/p&gt;&lt;p style=&quot;margin: 0px 0px 0px 4px; font-size: 13px;&quot;&gt;+ logar(String, String): void&lt;/p&gt;&lt;p style=&quot;margin: 0px 0px 0px 4px; font-size: 13px;&quot;&gt;+ esqueciSenha(String): void&lt;/p&gt;&lt;p style=&quot;margin: 0px 0px 0px 4px; font-size: 13px;&quot;&gt;+ mudaSenha(String): void&lt;/p&gt;" style="verticalAlign=top;align=left;overflow=fill;fontSize=13;fontFamily=Helvetica;html=1;whiteSpace=wrap;" vertex="1" parent="1">
          <mxGeometry x="-592" y="374" width="190" height="101" as="geometry" />
        </mxCell>
        <mxCell id="8MOAWp1Sfqbr2MybWYsb-68" style="edgeStyle=orthogonalEdgeStyle;rounded=0;orthogonalLoop=1;jettySize=auto;html=1;entryX=0.3;entryY=-0.035;entryDx=0;entryDy=0;entryPerimeter=0;fontSize=13;" edge="1" parent="1" source="8MOAWp1Sfqbr2MybWYsb-64" target="8MOAWp1Sfqbr2MybWYsb-63">
          <mxGeometry relative="1" as="geometry" />
        </mxCell>
        <mxCell id="8MOAWp1Sfqbr2MybWYsb-64" value="&lt;p style=&quot;margin: 4px 0px 0px; text-align: center; font-size: 13px;&quot;&gt;&lt;i style=&quot;font-size: 13px;&quot;&gt;&amp;lt;&amp;lt;View&amp;gt;&amp;gt;&lt;/i&gt;&lt;br style=&quot;font-size: 13px;&quot;&gt;&lt;b style=&quot;font-size: 13px;&quot;&gt;Login&lt;/b&gt;&lt;/p&gt;&lt;hr style=&quot;font-size: 13px;&quot;&gt;&lt;p style=&quot;margin: 0px 0px 0px 4px; font-size: 13px;&quot;&gt;- dados&lt;br style=&quot;border-color: var(--border-color); font-size: 13px;&quot;&gt;&lt;/p&gt;&lt;hr style=&quot;font-size: 13px;&quot;&gt;&lt;p style=&quot;margin: 0px 0px 0px 4px; font-size: 13px;&quot;&gt;+ validar(): Boolean&lt;/p&gt;&lt;p style=&quot;border-color: var(--border-color); margin: 0px 0px 0px 4px; font-size: 13px;&quot;&gt;+ listar(): void&lt;/p&gt;&lt;p style=&quot;border-color: var(--border-color); margin: 0px 0px 0px 4px; font-size: 13px;&quot;&gt;+ formulario(): void&lt;/p&gt;" style="verticalAlign=top;align=left;overflow=fill;fontSize=13;fontFamily=Helvetica;html=1;whiteSpace=wrap;" vertex="1" parent="1">
          <mxGeometry x="-652" y="93" width="190" height="131" as="geometry" />
        </mxCell>
        <mxCell id="8MOAWp1Sfqbr2MybWYsb-67" style="edgeStyle=orthogonalEdgeStyle;rounded=0;orthogonalLoop=1;jettySize=auto;html=1;fontSize=13;" edge="1" parent="1" source="8MOAWp1Sfqbr2MybWYsb-66" target="8MOAWp1Sfqbr2MybWYsb-63">
          <mxGeometry relative="1" as="geometry" />
        </mxCell>
        <mxCell id="8MOAWp1Sfqbr2MybWYsb-66" value="&lt;p style=&quot;margin: 4px 0px 0px; text-align: center; font-size: 13px;&quot;&gt;&lt;i style=&quot;font-size: 13px;&quot;&gt;&amp;lt;&amp;lt;View&amp;gt;&amp;gt;&lt;/i&gt;&lt;br style=&quot;font-size: 13px;&quot;&gt;&lt;b style=&quot;font-size: 13px;&quot;&gt;Cadastro&lt;/b&gt;&lt;/p&gt;&lt;hr style=&quot;font-size: 13px;&quot;&gt;&lt;p style=&quot;margin: 0px 0px 0px 4px; font-size: 13px;&quot;&gt;- dados&lt;br style=&quot;font-size: 13px;&quot;&gt;&lt;/p&gt;&lt;hr style=&quot;font-size: 13px;&quot;&gt;&lt;p style=&quot;border-color: var(--border-color); margin: 0px 0px 0px 4px; font-size: 13px;&quot;&gt;+ validar(): Boolean&lt;/p&gt;&lt;p style=&quot;border-color: var(--border-color); margin: 0px 0px 0px 4px; font-size: 13px;&quot;&gt;+ listar(): void&lt;/p&gt;&lt;p style=&quot;border-color: var(--border-color); margin: 0px 0px 0px 4px; font-size: 13px;&quot;&gt;+ formulario(): void&lt;/p&gt;" style="verticalAlign=top;align=left;overflow=fill;fontSize=13;fontFamily=Helvetica;html=1;whiteSpace=wrap;" vertex="1" parent="1">
          <mxGeometry x="-412" y="86" width="190" height="134" as="geometry" />
        </mxCell>
        <mxCell id="8MOAWp1Sfqbr2MybWYsb-99" style="edgeStyle=orthogonalEdgeStyle;rounded=0;orthogonalLoop=1;jettySize=auto;html=1;entryX=0.5;entryY=0;entryDx=0;entryDy=0;fontSize=13;" edge="1" parent="1" source="8MOAWp1Sfqbr2MybWYsb-69" target="8MOAWp1Sfqbr2MybWYsb-98">
          <mxGeometry relative="1" as="geometry" />
        </mxCell>
        <mxCell id="8MOAWp1Sfqbr2MybWYsb-69" value="&lt;p style=&quot;margin: 4px 0px 0px; text-align: center; font-size: 13px;&quot;&gt;&lt;i style=&quot;font-size: 13px;&quot;&gt;&amp;lt;&amp;lt;View&amp;gt;&amp;gt;&lt;/i&gt;&lt;br style=&quot;font-size: 13px;&quot;&gt;&lt;b style=&quot;font-size: 13px;&quot;&gt;Consulta&lt;/b&gt;&lt;/p&gt;&lt;hr style=&quot;font-size: 13px;&quot;&gt;&lt;p style=&quot;margin: 0px 0px 0px 4px; font-size: 13px;&quot;&gt;- dados&lt;br style=&quot;border-color: var(--border-color); font-size: 13px;&quot;&gt;&lt;/p&gt;&lt;hr style=&quot;font-size: 13px;&quot;&gt;&lt;p style=&quot;border-color: var(--border-color); margin: 0px 0px 0px 4px; font-size: 13px;&quot;&gt;+ validar(): Boolean&lt;/p&gt;&lt;p style=&quot;border-color: var(--border-color); margin: 0px 0px 0px 4px; font-size: 13px;&quot;&gt;+ listar(): void&lt;/p&gt;&lt;p style=&quot;border-color: var(--border-color); margin: 0px 0px 0px 4px; font-size: 13px;&quot;&gt;+ formulario(): void&lt;/p&gt;" style="verticalAlign=top;align=left;overflow=fill;fontSize=13;fontFamily=Helvetica;html=1;whiteSpace=wrap;" vertex="1" parent="1">
          <mxGeometry x="-172" y="86" width="190" height="138" as="geometry" />
        </mxCell>
        <mxCell id="8MOAWp1Sfqbr2MybWYsb-88" style="edgeStyle=orthogonalEdgeStyle;rounded=0;orthogonalLoop=1;jettySize=auto;html=1;entryX=0;entryY=0;entryDx=392.5;entryDy=35;entryPerimeter=0;fontSize=13;" edge="1" parent="1" source="8MOAWp1Sfqbr2MybWYsb-71" target="8MOAWp1Sfqbr2MybWYsb-72">
          <mxGeometry relative="1" as="geometry" />
        </mxCell>
        <mxCell id="8MOAWp1Sfqbr2MybWYsb-71" value="&lt;p style=&quot;margin: 4px 0px 0px; text-align: center; font-size: 13px;&quot;&gt;&lt;i style=&quot;font-size: 13px;&quot;&gt;&amp;lt;&amp;lt;Interface&amp;gt;&amp;gt;&lt;/i&gt;&lt;br style=&quot;font-size: 13px;&quot;&gt;&lt;b style=&quot;font-size: 13px;&quot;&gt;Entity&lt;/b&gt;&lt;/p&gt;&lt;hr style=&quot;font-size: 13px;&quot;&gt;&lt;p style=&quot;margin: 0px 0px 0px 4px; font-size: 13px;&quot;&gt;&lt;/p&gt;&lt;p style=&quot;margin: 0px 0px 0px 4px; font-size: 13px;&quot;&gt;+ integrarDados(): void&lt;/p&gt;&lt;p style=&quot;margin: 0px 0px 0px 4px; font-size: 13px;&quot;&gt;+ integrarDados(String): void&lt;br style=&quot;font-size: 13px;&quot;&gt;&lt;/p&gt;" style="verticalAlign=top;align=left;overflow=fill;fontSize=13;fontFamily=Helvetica;html=1;whiteSpace=wrap;" vertex="1" parent="1">
          <mxGeometry x="-342" y="664" width="270" height="90" as="geometry" />
        </mxCell>
        <mxCell id="8MOAWp1Sfqbr2MybWYsb-96" value="" style="group;fontSize=13;" vertex="1" connectable="0" parent="1">
          <mxGeometry x="-512" y="834" width="810" height="835" as="geometry" />
        </mxCell>
        <mxCell id="8MOAWp1Sfqbr2MybWYsb-72" value="" style="shape=folder;fontStyle=1;spacingTop=10;tabWidth=45;tabHeight=35;tabPosition=left;html=1;whiteSpace=wrap;fontSize=13;" vertex="1" parent="8MOAWp1Sfqbr2MybWYsb-96">
          <mxGeometry width="809.9999999999999" height="835" as="geometry" />
        </mxCell>
        <mxCell id="8MOAWp1Sfqbr2MybWYsb-1" value="&amp;nbsp; &amp;lt;&amp;lt;Entity&amp;gt;&amp;gt;&lt;br style=&quot;border-color: var(--border-color); font-size: 13px;&quot;&gt;&lt;b style=&quot;font-size: 13px;&quot;&gt;Foto&lt;/b&gt;" style="swimlane;fontStyle=0;childLayout=stackLayout;horizontal=1;startSize=36;fillColor=none;horizontalStack=0;resizeParent=1;resizeParentMax=0;resizeLast=0;collapsible=1;marginBottom=0;whiteSpace=wrap;html=1;fontSize=13;" vertex="1" parent="8MOAWp1Sfqbr2MybWYsb-96">
          <mxGeometry x="226.58108108108107" y="504" width="153.24324324324323" height="148" as="geometry" />
        </mxCell>
        <mxCell id="8MOAWp1Sfqbr2MybWYsb-2" value="- nome: String" style="text;strokeColor=none;fillColor=none;align=left;verticalAlign=top;spacingLeft=4;spacingRight=4;overflow=hidden;rotatable=0;points=[[0,0.5],[1,0.5]];portConstraint=eastwest;whiteSpace=wrap;html=1;fontSize=13;" vertex="1" parent="8MOAWp1Sfqbr2MybWYsb-1">
          <mxGeometry y="36" width="153.24324324324323" height="26" as="geometry" />
        </mxCell>
        <mxCell id="8MOAWp1Sfqbr2MybWYsb-3" value="- data: Date" style="text;strokeColor=none;fillColor=none;align=left;verticalAlign=top;spacingLeft=4;spacingRight=4;overflow=hidden;rotatable=0;points=[[0,0.5],[1,0.5]];portConstraint=eastwest;whiteSpace=wrap;html=1;fontSize=13;" vertex="1" parent="8MOAWp1Sfqbr2MybWYsb-1">
          <mxGeometry y="62" width="153.24324324324323" height="26" as="geometry" />
        </mxCell>
        <mxCell id="8MOAWp1Sfqbr2MybWYsb-4" value="- anotaÃ§Ãµes: String" style="text;strokeColor=none;fillColor=none;align=left;verticalAlign=top;spacingLeft=4;spacingRight=4;overflow=hidden;rotatable=0;points=[[0,0.5],[1,0.5]];portConstraint=eastwest;whiteSpace=wrap;html=1;fontSize=13;" vertex="1" parent="8MOAWp1Sfqbr2MybWYsb-1">
          <mxGeometry y="88" width="153.24324324324323" height="26" as="geometry" />
        </mxCell>
        <mxCell id="8MOAWp1Sfqbr2MybWYsb-84" value="" style="line;strokeWidth=1;fillColor=none;align=left;verticalAlign=middle;spacingTop=-1;spacingLeft=3;spacingRight=3;rotatable=0;labelPosition=right;points=[];portConstraint=eastwest;strokeColor=inherit;fontSize=13;" vertex="1" parent="8MOAWp1Sfqbr2MybWYsb-1">
          <mxGeometry y="114" width="153.24324324324323" height="8" as="geometry" />
        </mxCell>
        <mxCell id="8MOAWp1Sfqbr2MybWYsb-85" value="+ getFoto(): Foto" style="text;strokeColor=none;fillColor=none;align=left;verticalAlign=top;spacingLeft=4;spacingRight=4;overflow=hidden;rotatable=0;points=[[0,0.5],[1,0.5]];portConstraint=eastwest;whiteSpace=wrap;html=1;fontSize=13;" vertex="1" parent="8MOAWp1Sfqbr2MybWYsb-1">
          <mxGeometry y="122" width="153.24324324324323" height="26" as="geometry" />
        </mxCell>
        <mxCell id="8MOAWp1Sfqbr2MybWYsb-5" value="&amp;lt;&amp;lt;Entity&amp;gt;&amp;gt;&lt;br style=&quot;border-color: var(--border-color); font-size: 13px;&quot;&gt;&lt;b style=&quot;font-size: 13px;&quot;&gt;Hormonio&lt;/b&gt;" style="swimlane;fontStyle=0;childLayout=stackLayout;horizontal=1;startSize=36;fillColor=none;horizontalStack=0;resizeParent=1;resizeParentMax=0;resizeLast=0;collapsible=1;marginBottom=0;whiteSpace=wrap;html=1;fontSize=13;" vertex="1" parent="8MOAWp1Sfqbr2MybWYsb-96">
          <mxGeometry x="32.83783783783784" y="504" width="170" height="160" as="geometry" />
        </mxCell>
        <mxCell id="8MOAWp1Sfqbr2MybWYsb-6" value="- nome: String" style="text;strokeColor=none;fillColor=none;align=left;verticalAlign=top;spacingLeft=4;spacingRight=4;overflow=hidden;rotatable=0;points=[[0,0.5],[1,0.5]];portConstraint=eastwest;whiteSpace=wrap;html=1;fontSize=13;" vertex="1" parent="8MOAWp1Sfqbr2MybWYsb-5">
          <mxGeometry y="36" width="170" height="26" as="geometry" />
        </mxCell>
        <mxCell id="8MOAWp1Sfqbr2MybWYsb-7" value="- data: Data" style="text;strokeColor=none;fillColor=none;align=left;verticalAlign=top;spacingLeft=4;spacingRight=4;overflow=hidden;rotatable=0;points=[[0,0.5],[1,0.5]];portConstraint=eastwest;whiteSpace=wrap;html=1;fontSize=13;" vertex="1" parent="8MOAWp1Sfqbr2MybWYsb-5">
          <mxGeometry y="62" width="170" height="26" as="geometry" />
        </mxCell>
        <mxCell id="8MOAWp1Sfqbr2MybWYsb-8" value="- quantidade: Int" style="text;strokeColor=none;fillColor=none;align=left;verticalAlign=top;spacingLeft=4;spacingRight=4;overflow=hidden;rotatable=0;points=[[0,0.5],[1,0.5]];portConstraint=eastwest;whiteSpace=wrap;html=1;fontSize=13;" vertex="1" parent="8MOAWp1Sfqbr2MybWYsb-5">
          <mxGeometry y="88" width="170" height="26" as="geometry" />
        </mxCell>
        <mxCell id="8MOAWp1Sfqbr2MybWYsb-46" value="" style="line;strokeWidth=1;fillColor=none;align=left;verticalAlign=middle;spacingTop=-1;spacingLeft=3;spacingRight=3;rotatable=0;labelPosition=right;points=[];portConstraint=eastwest;strokeColor=inherit;fontSize=13;" vertex="1" parent="8MOAWp1Sfqbr2MybWYsb-5">
          <mxGeometry y="114" width="170" height="8" as="geometry" />
        </mxCell>
        <mxCell id="8MOAWp1Sfqbr2MybWYsb-47" value="+ getQuantidade(): String&lt;br style=&quot;font-size: 13px;&quot;&gt;+ setAlarme(): Boolean" style="text;strokeColor=none;fillColor=none;align=left;verticalAlign=top;spacingLeft=4;spacingRight=4;overflow=hidden;rotatable=0;points=[[0,0.5],[1,0.5]];portConstraint=eastwest;whiteSpace=wrap;html=1;fontSize=13;" vertex="1" parent="8MOAWp1Sfqbr2MybWYsb-5">
          <mxGeometry y="122" width="170" height="38" as="geometry" />
        </mxCell>
        <mxCell id="8MOAWp1Sfqbr2MybWYsb-10" value="&amp;lt;&amp;lt;Entity&amp;gt;&amp;gt;&lt;br style=&quot;font-size: 13px;&quot;&gt;&lt;b style=&quot;font-size: 13px;&quot;&gt;Pessoa&lt;/b&gt;" style="swimlane;fontStyle=0;childLayout=stackLayout;horizontal=1;startSize=36;fillColor=none;horizontalStack=0;resizeParent=1;resizeParentMax=0;resizeLast=0;collapsible=1;marginBottom=0;whiteSpace=wrap;html=1;fontSize=13;" vertex="1" parent="8MOAWp1Sfqbr2MybWYsb-96">
          <mxGeometry x="126.97297297297297" y="94" width="153.24324324324323" height="148" as="geometry" />
        </mxCell>
        <mxCell id="8MOAWp1Sfqbr2MybWYsb-11" value="- nome: String" style="text;strokeColor=none;fillColor=none;align=left;verticalAlign=top;spacingLeft=4;spacingRight=4;overflow=hidden;rotatable=0;points=[[0,0.5],[1,0.5]];portConstraint=eastwest;whiteSpace=wrap;html=1;fontSize=13;" vertex="1" parent="8MOAWp1Sfqbr2MybWYsb-10">
          <mxGeometry y="36" width="153.24324324324323" height="26" as="geometry" />
        </mxCell>
        <mxCell id="8MOAWp1Sfqbr2MybWYsb-12" value="- dataNascimento: Date" style="text;strokeColor=none;fillColor=none;align=left;verticalAlign=top;spacingLeft=4;spacingRight=4;overflow=hidden;rotatable=0;points=[[0,0.5],[1,0.5]];portConstraint=eastwest;whiteSpace=wrap;html=1;fontSize=13;" vertex="1" parent="8MOAWp1Sfqbr2MybWYsb-10">
          <mxGeometry y="62" width="153.24324324324323" height="26" as="geometry" />
        </mxCell>
        <mxCell id="8MOAWp1Sfqbr2MybWYsb-13" value="- genero: String" style="text;strokeColor=none;fillColor=none;align=left;verticalAlign=top;spacingLeft=4;spacingRight=4;overflow=hidden;rotatable=0;points=[[0,0.5],[1,0.5]];portConstraint=eastwest;whiteSpace=wrap;html=1;fontSize=13;" vertex="1" parent="8MOAWp1Sfqbr2MybWYsb-10">
          <mxGeometry y="88" width="153.24324324324323" height="26" as="geometry" />
        </mxCell>
        <mxCell id="8MOAWp1Sfqbr2MybWYsb-57" value="" style="line;strokeWidth=1;fillColor=none;align=left;verticalAlign=middle;spacingTop=-1;spacingLeft=3;spacingRight=3;rotatable=0;labelPosition=right;points=[];portConstraint=eastwest;strokeColor=inherit;fontSize=13;" vertex="1" parent="8MOAWp1Sfqbr2MybWYsb-10">
          <mxGeometry y="114" width="153.24324324324323" height="8" as="geometry" />
        </mxCell>
        <mxCell id="8MOAWp1Sfqbr2MybWYsb-58" value="+ getGenero(): String" style="text;strokeColor=none;fillColor=none;align=left;verticalAlign=top;spacingLeft=4;spacingRight=4;overflow=hidden;rotatable=0;points=[[0,0.5],[1,0.5]];portConstraint=eastwest;whiteSpace=wrap;html=1;fontSize=13;" vertex="1" parent="8MOAWp1Sfqbr2MybWYsb-10">
          <mxGeometry y="122" width="153.24324324324323" height="26" as="geometry" />
        </mxCell>
        <mxCell id="8MOAWp1Sfqbr2MybWYsb-14" value="&amp;lt;&amp;lt;Entity&amp;gt;&amp;gt;&lt;br style=&quot;border-color: var(--border-color); font-size: 13px;&quot;&gt;&lt;b style=&quot;font-size: 13px;&quot;&gt;Consulta&lt;/b&gt;" style="swimlane;fontStyle=0;childLayout=stackLayout;horizontal=1;startSize=30;fillColor=none;horizontalStack=0;resizeParent=1;resizeParentMax=0;resizeLast=0;collapsible=1;marginBottom=0;whiteSpace=wrap;html=1;fontSize=13;" vertex="1" parent="8MOAWp1Sfqbr2MybWYsb-96">
          <mxGeometry x="126.97297297297297" y="290" width="164.18918918918916" height="142" as="geometry" />
        </mxCell>
        <mxCell id="8MOAWp1Sfqbr2MybWYsb-15" value="- data: Date" style="text;strokeColor=none;fillColor=none;align=left;verticalAlign=top;spacingLeft=4;spacingRight=4;overflow=hidden;rotatable=0;points=[[0,0.5],[1,0.5]];portConstraint=eastwest;whiteSpace=wrap;html=1;fontSize=13;" vertex="1" parent="8MOAWp1Sfqbr2MybWYsb-14">
          <mxGeometry y="30" width="164.18918918918916" height="26" as="geometry" />
        </mxCell>
        <mxCell id="8MOAWp1Sfqbr2MybWYsb-16" value="- motivo: String" style="text;strokeColor=none;fillColor=none;align=left;verticalAlign=top;spacingLeft=4;spacingRight=4;overflow=hidden;rotatable=0;points=[[0,0.5],[1,0.5]];portConstraint=eastwest;whiteSpace=wrap;html=1;fontSize=13;" vertex="1" parent="8MOAWp1Sfqbr2MybWYsb-14">
          <mxGeometry y="56" width="164.18918918918916" height="26" as="geometry" />
        </mxCell>
        <mxCell id="8MOAWp1Sfqbr2MybWYsb-17" value="- situaÃ§Ã£o: String" style="text;strokeColor=none;fillColor=none;align=left;verticalAlign=top;spacingLeft=4;spacingRight=4;overflow=hidden;rotatable=0;points=[[0,0.5],[1,0.5]];portConstraint=eastwest;whiteSpace=wrap;html=1;fontSize=13;" vertex="1" parent="8MOAWp1Sfqbr2MybWYsb-14">
          <mxGeometry y="82" width="164.18918918918916" height="26" as="geometry" />
        </mxCell>
        <mxCell id="8MOAWp1Sfqbr2MybWYsb-78" value="" style="line;strokeWidth=1;fillColor=none;align=left;verticalAlign=middle;spacingTop=-1;spacingLeft=3;spacingRight=3;rotatable=0;labelPosition=right;points=[];portConstraint=eastwest;strokeColor=inherit;fontSize=13;" vertex="1" parent="8MOAWp1Sfqbr2MybWYsb-14">
          <mxGeometry y="108" width="164.18918918918916" height="8" as="geometry" />
        </mxCell>
        <mxCell id="8MOAWp1Sfqbr2MybWYsb-79" value="+ getExames(): Exame[]" style="text;strokeColor=none;fillColor=none;align=left;verticalAlign=top;spacingLeft=4;spacingRight=4;overflow=hidden;rotatable=0;points=[[0,0.5],[1,0.5]];portConstraint=eastwest;whiteSpace=wrap;html=1;fontSize=13;" vertex="1" parent="8MOAWp1Sfqbr2MybWYsb-14">
          <mxGeometry y="116" width="164.18918918918916" height="26" as="geometry" />
        </mxCell>
        <mxCell id="8MOAWp1Sfqbr2MybWYsb-18" value="&amp;lt;&amp;lt;Entity&amp;gt;&amp;gt;&lt;br style=&quot;border-color: var(--border-color); font-size: 13px;&quot;&gt;&lt;b style=&quot;font-size: 13px;&quot;&gt;Exame&lt;/b&gt;" style="swimlane;fontStyle=0;childLayout=stackLayout;horizontal=1;startSize=36;fillColor=none;horizontalStack=0;resizeParent=1;resizeParentMax=0;resizeLast=0;collapsible=1;marginBottom=0;whiteSpace=wrap;html=1;fontSize=13;" vertex="1" parent="8MOAWp1Sfqbr2MybWYsb-96">
          <mxGeometry x="623.9189189189188" y="504" width="153.24324324324323" height="174" as="geometry" />
        </mxCell>
        <mxCell id="8MOAWp1Sfqbr2MybWYsb-19" value="- nome: String" style="text;strokeColor=none;fillColor=none;align=left;verticalAlign=top;spacingLeft=4;spacingRight=4;overflow=hidden;rotatable=0;points=[[0,0.5],[1,0.5]];portConstraint=eastwest;whiteSpace=wrap;html=1;fontSize=13;" vertex="1" parent="8MOAWp1Sfqbr2MybWYsb-18">
          <mxGeometry y="36" width="153.24324324324323" height="26" as="geometry" />
        </mxCell>
        <mxCell id="8MOAWp1Sfqbr2MybWYsb-20" value="- data: Date" style="text;strokeColor=none;fillColor=none;align=left;verticalAlign=top;spacingLeft=4;spacingRight=4;overflow=hidden;rotatable=0;points=[[0,0.5],[1,0.5]];portConstraint=eastwest;whiteSpace=wrap;html=1;fontSize=13;" vertex="1" parent="8MOAWp1Sfqbr2MybWYsb-18">
          <mxGeometry y="62" width="153.24324324324323" height="26" as="geometry" />
        </mxCell>
        <mxCell id="8MOAWp1Sfqbr2MybWYsb-21" value="- situaÃ§Ã£o: Boolean" style="text;strokeColor=none;fillColor=none;align=left;verticalAlign=top;spacingLeft=4;spacingRight=4;overflow=hidden;rotatable=0;points=[[0,0.5],[1,0.5]];portConstraint=eastwest;whiteSpace=wrap;html=1;fontSize=13;" vertex="1" parent="8MOAWp1Sfqbr2MybWYsb-18">
          <mxGeometry y="88" width="153.24324324324323" height="26" as="geometry" />
        </mxCell>
        <mxCell id="8MOAWp1Sfqbr2MybWYsb-22" value="- resultado: String" style="text;strokeColor=none;fillColor=none;align=left;verticalAlign=top;spacingLeft=4;spacingRight=4;overflow=hidden;rotatable=0;points=[[0,0.5],[1,0.5]];portConstraint=eastwest;whiteSpace=wrap;html=1;fontSize=13;" vertex="1" parent="8MOAWp1Sfqbr2MybWYsb-18">
          <mxGeometry y="114" width="153.24324324324323" height="26" as="geometry" />
        </mxCell>
        <mxCell id="8MOAWp1Sfqbr2MybWYsb-80" value="" style="line;strokeWidth=1;fillColor=none;align=left;verticalAlign=middle;spacingTop=-1;spacingLeft=3;spacingRight=3;rotatable=0;labelPosition=right;points=[];portConstraint=eastwest;strokeColor=inherit;fontSize=13;" vertex="1" parent="8MOAWp1Sfqbr2MybWYsb-18">
          <mxGeometry y="140" width="153.24324324324323" height="8" as="geometry" />
        </mxCell>
        <mxCell id="8MOAWp1Sfqbr2MybWYsb-81" value="+ getResultado(): String" style="text;strokeColor=none;fillColor=none;align=left;verticalAlign=top;spacingLeft=4;spacingRight=4;overflow=hidden;rotatable=0;points=[[0,0.5],[1,0.5]];portConstraint=eastwest;whiteSpace=wrap;html=1;fontSize=13;" vertex="1" parent="8MOAWp1Sfqbr2MybWYsb-18">
          <mxGeometry y="148" width="153.24324324324323" height="26" as="geometry" />
        </mxCell>
        <mxCell id="8MOAWp1Sfqbr2MybWYsb-48" value="&amp;lt;&amp;lt;Entity&amp;gt;&amp;gt;&lt;br style=&quot;border-color: var(--border-color); font-size: 13px;&quot;&gt;&lt;b style=&quot;font-size: 13px;&quot;&gt;Alarme&lt;/b&gt;" style="swimlane;fontStyle=0;childLayout=stackLayout;horizontal=1;startSize=36;fillColor=none;horizontalStack=0;resizeParent=1;resizeParentMax=0;resizeLast=0;collapsible=1;marginBottom=0;whiteSpace=wrap;html=1;fontSize=13;" vertex="1" parent="8MOAWp1Sfqbr2MybWYsb-96">
          <mxGeometry x="426.8918918918919" y="504" width="153.24324324324323" height="122" as="geometry" />
        </mxCell>
        <mxCell id="8MOAWp1Sfqbr2MybWYsb-50" value="- data: Date" style="text;strokeColor=none;fillColor=none;align=left;verticalAlign=top;spacingLeft=4;spacingRight=4;overflow=hidden;rotatable=0;points=[[0,0.5],[1,0.5]];portConstraint=eastwest;whiteSpace=wrap;html=1;fontSize=13;" vertex="1" parent="8MOAWp1Sfqbr2MybWYsb-48">
          <mxGeometry y="36" width="153.24324324324323" height="26" as="geometry" />
        </mxCell>
        <mxCell id="8MOAWp1Sfqbr2MybWYsb-51" value="- status: Boolean" style="text;strokeColor=none;fillColor=none;align=left;verticalAlign=top;spacingLeft=4;spacingRight=4;overflow=hidden;rotatable=0;points=[[0,0.5],[1,0.5]];portConstraint=eastwest;whiteSpace=wrap;html=1;fontSize=13;" vertex="1" parent="8MOAWp1Sfqbr2MybWYsb-48">
          <mxGeometry y="62" width="153.24324324324323" height="26" as="geometry" />
        </mxCell>
        <mxCell id="8MOAWp1Sfqbr2MybWYsb-52" value="" style="line;strokeWidth=1;fillColor=none;align=left;verticalAlign=middle;spacingTop=-1;spacingLeft=3;spacingRight=3;rotatable=0;labelPosition=right;points=[];portConstraint=eastwest;strokeColor=inherit;fontSize=13;" vertex="1" parent="8MOAWp1Sfqbr2MybWYsb-48">
          <mxGeometry y="88" width="153.24324324324323" height="8" as="geometry" />
        </mxCell>
        <mxCell id="8MOAWp1Sfqbr2MybWYsb-53" value="+ ativo(): Booelan" style="text;strokeColor=none;fillColor=none;align=left;verticalAlign=top;spacingLeft=4;spacingRight=4;overflow=hidden;rotatable=0;points=[[0,0.5],[1,0.5]];portConstraint=eastwest;whiteSpace=wrap;html=1;fontSize=13;" vertex="1" parent="8MOAWp1Sfqbr2MybWYsb-48">
          <mxGeometry y="96" width="153.24324324324323" height="26" as="geometry" />
        </mxCell>
        <mxCell id="8MOAWp1Sfqbr2MybWYsb-73" value="&lt;b style=&quot;font-size: 13px;&quot;&gt;&lt;font style=&quot;font-size: 13px;&quot;&gt;Entities&lt;/font&gt;&lt;/b&gt;" style="text;html=1;strokeColor=none;fillColor=none;align=center;verticalAlign=middle;whiteSpace=wrap;rounded=0;fontSize=13;" vertex="1" parent="8MOAWp1Sfqbr2MybWYsb-96">
          <mxGeometry width="76.62162162162161" height="35" as="geometry" />
        </mxCell>
        <mxCell id="8MOAWp1Sfqbr2MybWYsb-90" value="&amp;lt;&amp;lt;Abstract&amp;gt;&amp;gt;&lt;br style=&quot;font-size: 13px;&quot;&gt;&lt;b style=&quot;font-size: 13px;&quot;&gt;Usuario&lt;/b&gt;" style="swimlane;fontStyle=0;childLayout=stackLayout;horizontal=1;startSize=36;fillColor=none;horizontalStack=0;resizeParent=1;resizeParentMax=0;resizeLast=0;collapsible=1;marginBottom=0;whiteSpace=wrap;html=1;fontSize=13;" vertex="1" parent="8MOAWp1Sfqbr2MybWYsb-96">
          <mxGeometry x="459.7297297297297" y="84" width="197.027027027027" height="122" as="geometry" />
        </mxCell>
        <mxCell id="8MOAWp1Sfqbr2MybWYsb-91" value="- email: String" style="text;strokeColor=none;fillColor=none;align=left;verticalAlign=top;spacingLeft=4;spacingRight=4;overflow=hidden;rotatable=0;points=[[0,0.5],[1,0.5]];portConstraint=eastwest;whiteSpace=wrap;html=1;fontSize=13;" vertex="1" parent="8MOAWp1Sfqbr2MybWYsb-90">
          <mxGeometry y="36" width="197.027027027027" height="26" as="geometry" />
        </mxCell>
        <mxCell id="8MOAWp1Sfqbr2MybWYsb-92" value="- senha: String" style="text;strokeColor=none;fillColor=none;align=left;verticalAlign=top;spacingLeft=4;spacingRight=4;overflow=hidden;rotatable=0;points=[[0,0.5],[1,0.5]];portConstraint=eastwest;whiteSpace=wrap;html=1;fontSize=13;" vertex="1" parent="8MOAWp1Sfqbr2MybWYsb-90">
          <mxGeometry y="62" width="197.027027027027" height="26" as="geometry" />
        </mxCell>
        <mxCell id="8MOAWp1Sfqbr2MybWYsb-94" value="" style="line;strokeWidth=1;fillColor=none;align=left;verticalAlign=middle;spacingTop=-1;spacingLeft=3;spacingRight=3;rotatable=0;labelPosition=right;points=[];portConstraint=eastwest;strokeColor=inherit;fontSize=13;" vertex="1" parent="8MOAWp1Sfqbr2MybWYsb-90">
          <mxGeometry y="88" width="197.027027027027" height="8" as="geometry" />
        </mxCell>
        <mxCell id="8MOAWp1Sfqbr2MybWYsb-95" value="+ setSenha(String): Boolean" style="text;strokeColor=none;fillColor=none;align=left;verticalAlign=top;spacingLeft=4;spacingRight=4;overflow=hidden;rotatable=0;points=[[0,0.5],[1,0.5]];portConstraint=eastwest;whiteSpace=wrap;html=1;fontSize=13;" vertex="1" parent="8MOAWp1Sfqbr2MybWYsb-90">
          <mxGeometry y="96" width="197.027027027027" height="26" as="geometry" />
        </mxCell>
        <mxCell id="8MOAWp1Sfqbr2MybWYsb-104" style="edgeStyle=orthogonalEdgeStyle;rounded=0;orthogonalLoop=1;jettySize=auto;html=1;entryX=0;entryY=0.5;entryDx=0;entryDy=0;endArrow=block;endFill=0;fontSize=13;" edge="1" parent="8MOAWp1Sfqbr2MybWYsb-96" source="8MOAWp1Sfqbr2MybWYsb-12" target="8MOAWp1Sfqbr2MybWYsb-92">
          <mxGeometry relative="1" as="geometry" />
        </mxCell>
        <mxCell id="8MOAWp1Sfqbr2MybWYsb-102" style="edgeStyle=orthogonalEdgeStyle;rounded=0;orthogonalLoop=1;jettySize=auto;html=1;entryX=0.5;entryY=0;entryDx=0;entryDy=0;fontSize=13;" edge="1" parent="1" source="8MOAWp1Sfqbr2MybWYsb-97" target="8MOAWp1Sfqbr2MybWYsb-101">
          <mxGeometry relative="1" as="geometry" />
        </mxCell>
        <mxCell id="8MOAWp1Sfqbr2MybWYsb-97" value="&lt;p style=&quot;margin: 4px 0px 0px; text-align: center; font-size: 13px;&quot;&gt;&lt;i style=&quot;font-size: 13px;&quot;&gt;&amp;lt;&amp;lt;View&amp;gt;&amp;gt;&lt;/i&gt;&lt;br style=&quot;font-size: 13px;&quot;&gt;&lt;b style=&quot;font-size: 13px;&quot;&gt;Exame&lt;/b&gt;&lt;/p&gt;&lt;hr style=&quot;font-size: 13px;&quot;&gt;&lt;p style=&quot;margin: 0px 0px 0px 4px; font-size: 13px;&quot;&gt;- dados&lt;br style=&quot;border-color: var(--border-color); font-size: 13px;&quot;&gt;&lt;/p&gt;&lt;hr style=&quot;font-size: 13px;&quot;&gt;&lt;p style=&quot;border-color: var(--border-color); margin: 0px 0px 0px 4px; font-size: 13px;&quot;&gt;+ validar(): Boolean&lt;/p&gt;&lt;p style=&quot;border-color: var(--border-color); margin: 0px 0px 0px 4px; font-size: 13px;&quot;&gt;+ listar(): void&lt;/p&gt;&lt;p style=&quot;border-color: var(--border-color); margin: 0px 0px 0px 4px; font-size: 13px;&quot;&gt;+ formulario(): void&lt;/p&gt;" style="verticalAlign=top;align=left;overflow=fill;fontSize=13;fontFamily=Helvetica;html=1;whiteSpace=wrap;" vertex="1" parent="1">
          <mxGeometry x="68" y="84" width="190" height="140" as="geometry" />
        </mxCell>
        <mxCell id="8MOAWp1Sfqbr2MybWYsb-116" style="edgeStyle=orthogonalEdgeStyle;rounded=0;orthogonalLoop=1;jettySize=auto;html=1;entryX=0.188;entryY=-0.009;entryDx=0;entryDy=0;entryPerimeter=0;fontSize=13;" edge="1" parent="1" source="8MOAWp1Sfqbr2MybWYsb-98" target="8MOAWp1Sfqbr2MybWYsb-112">
          <mxGeometry relative="1" as="geometry">
            <Array as="points">
              <mxPoint x="-172" y="534" />
              <mxPoint x="159" y="534" />
            </Array>
          </mxGeometry>
        </mxCell>
        <mxCell id="8MOAWp1Sfqbr2MybWYsb-98" value="&lt;p style=&quot;margin: 4px 0px 0px; text-align: center; font-size: 13px;&quot;&gt;&amp;lt;&amp;lt;Controller&amp;gt;&lt;span style=&quot;font-size: 13px;&quot;&gt;&amp;gt;&lt;/span&gt;&lt;/p&gt;&lt;p style=&quot;margin: 4px 0px 0px; text-align: center; font-size: 13px;&quot;&gt;&lt;b style=&quot;font-size: 13px;&quot;&gt;ConsultaControler&lt;/b&gt;&lt;/p&gt;&lt;hr style=&quot;font-size: 13px;&quot;&gt;&lt;p style=&quot;margin: 0px 0px 0px 4px; font-size: 13px;&quot;&gt;&lt;/p&gt;&lt;p style=&quot;margin: 0px 0px 0px 4px; font-size: 13px;&quot;&gt;+ salvarConsulta(String, String): void&lt;/p&gt;&lt;p style=&quot;margin: 0px 0px 0px 4px; font-size: 13px;&quot;&gt;+ esqueciSenha(String): void&lt;/p&gt;&lt;p style=&quot;margin: 0px 0px 0px 4px; font-size: 13px;&quot;&gt;+ mudaSenha(String): void&lt;/p&gt;" style="verticalAlign=top;align=left;overflow=fill;fontSize=13;fontFamily=Helvetica;html=1;whiteSpace=wrap;" vertex="1" parent="1">
          <mxGeometry x="-302" y="374" width="260" height="101" as="geometry" />
        </mxCell>
        <mxCell id="8MOAWp1Sfqbr2MybWYsb-122" style="edgeStyle=orthogonalEdgeStyle;rounded=0;orthogonalLoop=1;jettySize=auto;html=1;entryX=0.543;entryY=-0.019;entryDx=0;entryDy=0;entryPerimeter=0;fontSize=13;" edge="1" parent="1" source="8MOAWp1Sfqbr2MybWYsb-101" target="8MOAWp1Sfqbr2MybWYsb-112">
          <mxGeometry relative="1" as="geometry">
            <Array as="points">
              <mxPoint x="218" y="570" />
              <mxPoint x="255" y="570" />
            </Array>
          </mxGeometry>
        </mxCell>
        <mxCell id="8MOAWp1Sfqbr2MybWYsb-101" value="&lt;p style=&quot;border-color: var(--border-color); margin: 4px 0px 0px; text-align: center; font-size: 13px;&quot;&gt;&amp;lt;&amp;lt;Controller&amp;gt;&amp;gt;&lt;/p&gt;&lt;p style=&quot;margin: 4px 0px 0px; text-align: center; font-size: 13px;&quot;&gt;&lt;b style=&quot;font-size: 13px;&quot;&gt;ExameControler&lt;/b&gt;&lt;/p&gt;&lt;hr style=&quot;font-size: 13px;&quot;&gt;&lt;p style=&quot;margin: 0px 0px 0px 4px; font-size: 13px;&quot;&gt;&lt;/p&gt;&lt;p style=&quot;margin: 0px 0px 0px 4px; font-size: 13px;&quot;&gt;+ salvarExame(String, String): void&lt;/p&gt;&lt;p style=&quot;margin: 0px 0px 0px 4px; font-size: 13px;&quot;&gt;+ esqueciSenha(String): void&lt;/p&gt;&lt;p style=&quot;margin: 0px 0px 0px 4px; font-size: 13px;&quot;&gt;+ mudaSenha(String): void&lt;/p&gt;" style="verticalAlign=top;align=left;overflow=fill;fontSize=13;fontFamily=Helvetica;html=1;whiteSpace=wrap;" vertex="1" parent="1">
          <mxGeometry x="33" y="374" width="260" height="101" as="geometry" />
        </mxCell>
        <mxCell id="8MOAWp1Sfqbr2MybWYsb-118" style="edgeStyle=orthogonalEdgeStyle;rounded=0;orthogonalLoop=1;jettySize=auto;html=1;entryX=0.439;entryY=0.017;entryDx=0;entryDy=0;entryPerimeter=0;fontSize=13;" edge="1" parent="1" source="8MOAWp1Sfqbr2MybWYsb-103" target="8MOAWp1Sfqbr2MybWYsb-110">
          <mxGeometry relative="1" as="geometry" />
        </mxCell>
        <mxCell id="8MOAWp1Sfqbr2MybWYsb-103" value="&lt;p style=&quot;margin: 4px 0px 0px; text-align: center; font-size: 13px;&quot;&gt;&lt;i style=&quot;font-size: 13px;&quot;&gt;&amp;lt;&amp;lt;View&amp;gt;&amp;gt;&lt;/i&gt;&lt;br style=&quot;font-size: 13px;&quot;&gt;&lt;b style=&quot;font-size: 13px;&quot;&gt;Foto&lt;/b&gt;&lt;/p&gt;&lt;hr style=&quot;font-size: 13px;&quot;&gt;&lt;p style=&quot;margin: 0px 0px 0px 4px; font-size: 13px;&quot;&gt;- dados&lt;br style=&quot;border-color: var(--border-color); font-size: 13px;&quot;&gt;&lt;/p&gt;&lt;hr style=&quot;font-size: 13px;&quot;&gt;&lt;p style=&quot;border-color: var(--border-color); margin: 0px 0px 0px 4px; font-size: 13px;&quot;&gt;+ validar(): Boolean&lt;/p&gt;&lt;p style=&quot;border-color: var(--border-color); margin: 0px 0px 0px 4px; font-size: 13px;&quot;&gt;+ listar(): void&lt;/p&gt;&lt;p style=&quot;border-color: var(--border-color); margin: 0px 0px 0px 4px; font-size: 13px;&quot;&gt;+ formulario(): void&lt;/p&gt;" style="verticalAlign=top;align=left;overflow=fill;fontSize=13;fontFamily=Helvetica;html=1;whiteSpace=wrap;" vertex="1" parent="1">
          <mxGeometry x="298" y="84" width="190" height="140" as="geometry" />
        </mxCell>
        <mxCell id="8MOAWp1Sfqbr2MybWYsb-121" style="edgeStyle=orthogonalEdgeStyle;rounded=0;orthogonalLoop=1;jettySize=auto;html=1;entryX=0.861;entryY=0.009;entryDx=0;entryDy=0;entryPerimeter=0;fontSize=13;" edge="1" parent="1" source="8MOAWp1Sfqbr2MybWYsb-110" target="8MOAWp1Sfqbr2MybWYsb-112">
          <mxGeometry relative="1" as="geometry" />
        </mxCell>
        <mxCell id="8MOAWp1Sfqbr2MybWYsb-110" value="&lt;p style=&quot;border-color: var(--border-color); margin: 4px 0px 0px; text-align: center; font-size: 13px;&quot;&gt;&amp;lt;&amp;lt;Controller&amp;gt;&amp;gt;&lt;/p&gt;&lt;p style=&quot;margin: 4px 0px 0px; text-align: center; font-size: 13px;&quot;&gt;&lt;b style=&quot;font-size: 13px;&quot;&gt;AcompanhamentoControler&lt;/b&gt;&lt;/p&gt;&lt;hr style=&quot;font-size: 13px;&quot;&gt;&lt;p style=&quot;margin: 0px 0px 0px 4px; font-size: 13px;&quot;&gt;&lt;/p&gt;&lt;p style=&quot;margin: 0px 0px 0px 4px; font-size: 13px;&quot;&gt;+ salvarExame(String, String): void&lt;/p&gt;&lt;p style=&quot;margin: 0px 0px 0px 4px; font-size: 13px;&quot;&gt;+ esqueciSenha(String): void&lt;/p&gt;&lt;p style=&quot;margin: 0px 0px 0px 4px; font-size: 13px;&quot;&gt;+ mudaSenha(String): void&lt;/p&gt;" style="verticalAlign=top;align=left;overflow=fill;fontSize=13;fontFamily=Helvetica;html=1;whiteSpace=wrap;" vertex="1" parent="1">
          <mxGeometry x="328" y="374" width="260" height="101" as="geometry" />
        </mxCell>
        <mxCell id="8MOAWp1Sfqbr2MybWYsb-119" style="edgeStyle=orthogonalEdgeStyle;rounded=0;orthogonalLoop=1;jettySize=auto;html=1;entryX=0.596;entryY=0;entryDx=0;entryDy=0;entryPerimeter=0;fontSize=13;" edge="1" parent="1" source="8MOAWp1Sfqbr2MybWYsb-111" target="8MOAWp1Sfqbr2MybWYsb-110">
          <mxGeometry relative="1" as="geometry" />
        </mxCell>
        <mxCell id="8MOAWp1Sfqbr2MybWYsb-111" value="&lt;p style=&quot;margin: 4px 0px 0px; text-align: center; font-size: 13px;&quot;&gt;&lt;i style=&quot;font-size: 13px;&quot;&gt;&amp;lt;&amp;lt;View&amp;gt;&amp;gt;&lt;/i&gt;&lt;br style=&quot;font-size: 13px;&quot;&gt;&lt;b style=&quot;font-size: 13px;&quot;&gt;Hormonio&lt;/b&gt;&lt;/p&gt;&lt;hr style=&quot;font-size: 13px;&quot;&gt;&lt;p style=&quot;margin: 0px 0px 0px 4px; font-size: 13px;&quot;&gt;- dados&lt;br style=&quot;border-color: var(--border-color); font-size: 13px;&quot;&gt;&lt;/p&gt;&lt;hr style=&quot;font-size: 13px;&quot;&gt;&lt;p style=&quot;border-color: var(--border-color); margin: 0px 0px 0px 4px; font-size: 13px;&quot;&gt;+ validar(): Boolean&lt;/p&gt;&lt;p style=&quot;border-color: var(--border-color); margin: 0px 0px 0px 4px; font-size: 13px;&quot;&gt;+ listar(): void&lt;/p&gt;&lt;p style=&quot;border-color: var(--border-color); margin: 0px 0px 0px 4px; font-size: 13px;&quot;&gt;+ formulario(): void&lt;/p&gt;" style="verticalAlign=top;align=left;overflow=fill;fontSize=13;fontFamily=Helvetica;html=1;whiteSpace=wrap;" vertex="1" parent="1">
          <mxGeometry x="518" y="84" width="190" height="140" as="geometry" />
        </mxCell>
        <mxCell id="8MOAWp1Sfqbr2MybWYsb-113" style="edgeStyle=orthogonalEdgeStyle;rounded=0;orthogonalLoop=1;jettySize=auto;html=1;entryX=1;entryY=0.5;entryDx=0;entryDy=0;fontSize=13;" edge="1" parent="1" source="8MOAWp1Sfqbr2MybWYsb-112" target="8MOAWp1Sfqbr2MybWYsb-71">
          <mxGeometry relative="1" as="geometry" />
        </mxCell>
        <mxCell id="8MOAWp1Sfqbr2MybWYsb-112" value="&lt;p style=&quot;margin: 4px 0px 0px; text-align: center; font-size: 13px;&quot;&gt;&lt;i style=&quot;font-size: 13px;&quot;&gt;&amp;lt;&amp;lt;Interface&amp;gt;&amp;gt;&lt;/i&gt;&lt;br style=&quot;font-size: 13px;&quot;&gt;&lt;b style=&quot;font-size: 13px;&quot;&gt;Controller&lt;/b&gt;&lt;/p&gt;&lt;hr style=&quot;font-size: 13px;&quot;&gt;&lt;p style=&quot;margin: 0px 0px 0px 4px; font-size: 13px;&quot;&gt;&lt;/p&gt;&lt;p style=&quot;margin: 0px 0px 0px 4px; font-size: 13px;&quot;&gt;+ integrarDados(): void&lt;/p&gt;&lt;p style=&quot;margin: 0px 0px 0px 4px; font-size: 13px;&quot;&gt;+ integrarDados(String): void&lt;br style=&quot;font-size: 13px;&quot;&gt;&lt;/p&gt;" style="verticalAlign=top;align=left;overflow=fill;fontSize=13;fontFamily=Helvetica;html=1;whiteSpace=wrap;" vertex="1" parent="1">
          <mxGeometry x="108" y="664" width="270" height="90" as="geometry" />
        </mxCell>
      </root>
    </mxGraphModel>
  </diagram>
</mxfile>
